# xmcd CD database file
#
# Track frame offsets:
#	150
#	25518
#	54813
#	83270
#	112890
#	149708
#	173598
#	199658
#	226040
#
# Disc length: 3425 seconds
#
# Revision: 1
# Processed by: cddbd v1.5.2PL0 Copyright (c) Steve Scherf et al.
# Submitted via: CDex 1.70beta3
#
DISCID=5b0d5f09
DTITLE=The Earth Quartet - Third Report
DYEAR=2005
DGENRE=Jazz
TTITLE0=At The Entrance...
TTITLE1=Chromaticism
TTITLE2=The Polestar
TTITLE3=雨下の砂漠
TTITLE4=Silence
TTITLE5=Hoppin' Steppin'
TTITLE6=春夏 - Four Seasons Suite #1
TTITLE7=Emotional Quality
TTITLE8=A Way...
EXTD=YEAR: 2005
EXTT0=
EXTT1=
EXTT2=
EXTT3=
EXTT4=
EXTT5=
EXTT6=
EXTT7=
EXTT8=
PLAYORDER=
